<?xml version="1.0" standalone="no"?>
<!DOCTYPE svg PUBLIC "-//W3C//DTD SVG 20010904//EN"
 "http://www.w3.org/TR/2001/REC-SVG-20010904/DTD/svg10.dtd">
<svg version="1.0" xmlns="http://www.w3.org/2000/svg"
 width="400.000000pt" height="400.000000pt" viewBox="0 0 400.000000 400.000000"
 preserveAspectRatio="xMidYMid meet">
<metadata>
Created by potrace 1.14, written by Peter Selinger 2001-2017
</metadata>
<g transform="translate(0.000000,400.000000) scale(0.100000,-0.100000)"
fill="#000000" stroke="none">
<path d="M983 3973 c-72 -114 -297 -333 -341 -333 -5 0 -15 -6 -21 -13 -6 -8
-43 -26 -83 -42 -128 -48 -124 -45 -76 -69 141 -70 260 -239 285 -406 2 -14 4
-370 5 -791 0 -450 5 -788 11 -820 29 -162 81 -302 155 -412 36 -54 38 -62 36
-125 -2 -37 -3 -84 -3 -104 -1 -40 -1 -40 -75 -20 -20 6 -36 8 -36 5 0 -3 -7
0 -15 7 -8 7 -15 10 -15 7 0 -3 -26 1 -57 9 -32 8 -78 17 -103 20 l-45 5 28
-25 c15 -15 26 -26 23 -26 -12 0 155 -168 227 -227 l78 -65 -42 -45 -41 -45
57 -52 c206 -184 469 -316 758 -378 86 -18 135 -22 312 -22 203 0 242 4 388
40 9 2 27 6 38 9 12 2 38 10 58 17 20 7 38 12 41 13 20 3 106 41 112 49 4 6 8
7 8 3 0 -11 210 100 255 135 6 4 37 28 70 52 33 25 84 66 113 93 l53 49 -40
44 -41 45 37 30 c61 48 181 165 247 239 l61 69 -35 -6 c-19 -4 -46 -8 -60 -11
-14 -2 -47 -9 -75 -15 -27 -7 -61 -14 -75 -16 -14 -2 -40 -9 -59 -14 -19 -6
-36 -9 -38 -7 -2 1 -4 50 -5 108 l-2 105 40 64 c63 100 101 188 119 279 2 8 4
15 5 15 2 0 8 32 15 80 3 22 7 51 10 65 3 14 6 368 6 786 1 791 2 823 44 918
47 109 147 217 245 266 l51 26 -81 32 c-171 67 -353 216 -468 385 l-33 47
-1004 0 -1005 0 -17 -27z m574 -3349 c48 -19 95 -37 103 -39 25 -7 223 -89
255 -107 39 -21 70 -49 78 -70 8 -22 27 -24 27 -3 0 28 105 105 133 97 4 -1 7
2 7 8 0 5 6 10 13 10 12 0 56 16 152 55 11 5 22 9 25 10 14 3 122 46 170 68
l55 24 51 -71 c29 -39 50 -75 47 -81 -14 -33 -313 -149 -438 -170 -148 -23
-341 -24 -455 -1 -72 15 -167 40 -183 48 -10 5 -27 11 -37 13 -28 5 -231 108
-228 115 2 3 26 38 53 77 40 57 53 69 67 62 9 -5 56 -25 105 -45z"/>
</g>
</svg>
